<?xml version="1.0" encoding="iso-8859-1"?>

<svg version="1.1" id="Layer_1" xmlns="http://www.w3.org/2000/svg" xmlns:xlink="http://www.w3.org/1999/xlink" x="0px" y="0px"
	 viewBox="0 0 512 512" style="enable-background:new 0 0 512 512;" xml:space="preserve">
<path style="fill:#8CB7E8;" d="M420.561,356.157c0-17.765-7.65-34.167-20.85-45.458v-31.837c0-9.028-7.319-16.347-16.347-16.347
	s-16.347,7.319-16.347,16.347h-218.31c0-9.028-7.319-16.347-16.347-16.347s-16.347,7.319-16.347,16.347v28.916
	c-15.191,11.175-24.574,29.201-24.574,48.379c0,24.79,15.128,46.113,36.636,55.224c-1.166,4.7-1.762,9.565-1.762,14.524
	c0,33.051,26.889,59.94,59.94,59.94c6.344,0,12.522-0.97,18.393-2.86C215.238,500.554,234.496,512,256,512
	c21.503,0,40.761-11.446,51.354-29.015c5.871,1.89,12.05,2.86,18.394,2.86c33.051,0,59.94-26.889,59.94-59.94
	c0-4.959-0.596-9.825-1.762-14.524C405.434,402.27,420.561,380.947,420.561,356.157z"/>
<path style="fill:#D6E5F6;" d="M256,0c-27.043,0-49.041,22-49.041,49.041S228.957,98.083,256,98.083
	c27.042,0,49.041-22.001,49.041-49.041C305.041,22,283.043,0,256,0z"/>
<path style="fill:#8CB7E8;" d="M305.041,49.041C305.041,22,283.043,0,256,0v98.083C283.043,98.083,305.041,76.083,305.041,49.041z"
	/>
<path style="fill:#D8143A;" d="M387.213,185.277L267.334,69.955c-6.331-6.089-16.336-6.089-22.667,0L124.788,185.277
	c-4.806,4.624-6.322,11.703-3.83,17.89c2.492,6.187,8.493,10.239,15.163,10.239h239.758c6.67,0,12.67-4.052,15.163-10.239
	C393.534,196.981,392.019,189.901,387.213,185.277z"/>
<path style="fill:#D6E5F6;" d="M420.561,356.157c0-17.765-7.65-34.167-20.85-45.458v-31.837c0-9.028-7.319-16.347-16.347-16.347
	s-16.347,7.319-16.347,16.347H256V512c21.503,0,40.761-11.446,51.354-29.015c5.871,1.89,12.05,2.86,18.394,2.86
	c33.051,0,59.94-26.889,59.94-59.94c0-4.959-0.596-9.825-1.762-14.524C405.434,402.27,420.561,380.947,420.561,356.157z"/>
<path style="fill:#A90028;" d="M391.042,203.168c2.492-6.187,0.976-13.266-3.83-17.89L267.333,69.955
	c-3.165-3.044-7.248-4.566-11.333-4.566v148.018h119.879C382.549,213.405,388.549,209.355,391.042,203.168z"/>
<g>
	<path style="fill:#D6E5F6;" d="M329.578,329.575c-7.813-4.523-17.814-1.856-22.337,5.958c-3.828,6.613-10.934,10.72-18.547,10.72
		c-7.612,0-14.719-4.106-18.547-10.72c-2.923-5.049-8.314-8.156-14.147-8.156c-5.834,0-11.225,3.108-14.147,8.156
		c-3.829,6.613-10.934,10.72-18.547,10.72c-7.612,0-14.719-4.106-18.547-10.72c-4.523-7.814-14.526-10.479-22.337-5.958
		c-7.814,4.523-10.481,14.524-5.958,22.337c9.652,16.677,27.602,27.036,46.841,27.036c11.957,0,23.416-4.002,32.694-11.033
		c9.279,7.031,20.737,11.033,32.694,11.033c19.239,0,37.189-10.359,46.841-27.036C340.059,344.099,337.392,334.097,329.578,329.575z
		"/>
	<path style="fill:#D6E5F6;" d="M408.573,180.711H103.427c-9.028,0-16.347,7.319-16.347,16.347v81.804
		c0,9.027,7.319,16.347,16.347,16.347h305.147c9.028,0,16.347-7.32,16.347-16.347v-81.804
		C424.92,188.03,417.602,180.711,408.573,180.711z"/>
</g>
<g>
	<path style="fill:#8CB7E8;" d="M288.694,378.947c19.239,0,37.189-10.359,46.841-27.036c4.523-7.813,1.856-17.814-5.958-22.337
		c-7.813-4.523-17.814-1.856-22.337,5.958c-3.828,6.613-10.934,10.72-18.547,10.72c-7.612,0-14.719-4.106-18.547-10.72
		c-2.923-5.049-8.314-8.156-14.147-8.156v40.538C265.279,374.946,276.738,378.947,288.694,378.947z"/>
	<path style="fill:#8CB7E8;" d="M408.573,180.711H256V295.21h152.573c9.028,0,16.347-7.32,16.347-16.347v-81.804
		C424.92,188.03,417.602,180.711,408.573,180.711z"/>
</g>
</svg>
